<svg width="411" height="255" viewBox="0 0 411 255" fill="none" xmlns="http://www.w3.org/2000/svg">
<path d="M141.377 0C78.1563 0 16.017 56.9454 2.58099 127.182C-10.855 197.427 29.4955 254.364 92.7162 254.364C155.937 254.364 218.076 197.419 231.512 127.182C244.948 56.9369 204.598 0 141.377 0Z" fill="#CBD0EB"/>
<mask id="mask0_2003_591" style="mask-type:luminance" maskUnits="userSpaceOnUse" x="0" y="0" width="235" height="255">
<path d="M141.377 0C78.1563 0 16.017 56.9454 2.58099 127.182C-10.855 197.427 29.4955 254.364 92.7162 254.364C155.937 254.364 218.076 197.419 231.512 127.182C244.948 56.9369 204.598 0 141.377 0Z" fill="white"/>
</mask>
<g mask="url(#mask0_2003_591)">
<path d="M129.84 71.1562L97.7145 183.199C96.9056 186.009 93.9766 188.291 91.1583 188.291H-20.8849C-23.6947 188.291 -25.321 186.009 -24.5207 183.199L7.6048 71.1562C8.41368 68.3464 11.3427 66.0645 14.161 66.0645H126.204C129.014 66.0645 130.64 68.3464 129.84 71.1562Z" fill="#4A36FF"/>
</g>
<path d="M317.331 0C254.11 0 191.971 56.9454 178.535 127.182C165.099 197.427 205.449 254.364 268.67 254.364C331.89 254.364 394.03 197.419 407.466 127.182C420.902 56.9369 380.551 0 317.331 0Z" fill="#CBD0EB"/>
<mask id="mask1_2003_591" style="mask-type:luminance" maskUnits="userSpaceOnUse" x="175" y="0" width="236" height="255">
<path d="M317.331 0C254.11 0 191.971 56.9454 178.535 127.182C165.099 197.427 205.449 254.364 268.67 254.364C331.89 254.364 394.03 197.419 407.466 127.182C420.902 56.9369 380.551 0 317.331 0Z" fill="white"/>
</mask>
<g mask="url(#mask1_2003_591)">
<path d="M315.475 71.1562L283.349 183.199C282.54 186.009 279.611 188.291 276.793 188.291H164.75C161.94 188.291 160.314 186.009 161.114 183.199L193.24 71.1562C194.048 68.3464 196.977 66.0645 199.796 66.0645H311.839C314.649 66.0645 316.275 68.3464 315.475 71.1562Z" fill="#4A36FF"/>
</g>
</svg>
